<svg data-v-423bf9ae="" xmlns="http://www.w3.org/2000/svg" viewBox="0 0 652.5 163" class="iconAbove"><!----><!----><!----><g data-v-423bf9ae="" id="07ce0661-2475-4c82-94b0-37ab11c844f5" fill="#ffffff" transform="matrix(4.285714149475098,0,0,4.285714149475098,0.000010371208190917969,103)"><path d="M3.50 12.25L0 12.25L0 0L3.50 0L3.50 1.75L5.25 1.75L5.25 3.50L7 3.50L7 1.75L8.75 1.75L8.75 0L12.25 0L12.25 12.25L8.75 12.25L8.75 5.25L7 5.25L7 8.75L5.25 8.75L5.25 5.25L3.50 5.25L3.50 12.25ZM22.75 1.75L19.25 1.75L19.25 0L22.75 0L22.75 1.75ZM26.25 12.25L15.75 12.25L15.75 10.50L19.25 10.50L19.25 5.25L17.50 5.25L17.50 3.50L22.75 3.50L22.75 10.50L26.25 10.50L26.25 12.25ZM31.50 12.25L28 12.25L28 3.50L38.50 3.50L38.50 5.25L40.25 5.25L40.25 12.25L36.75 12.25L36.75 5.25L31.50 5.25L31.50 12.25ZM52.50 12.25L43.75 12.25L43.75 10.50L42 10.50L42 5.25L43.75 5.25L43.75 3.50L52.50 3.50L52.50 5.25L54.25 5.25L54.25 8.75L45.50 8.75L45.50 10.50L52.50 10.50L52.50 12.25ZM45.50 5.25L45.50 7L50.75 7L50.75 5.25L45.50 5.25ZM61.25 3.50L61.25 5.25L63 5.25L63 7L61.25 7L61.25 12.25L57.75 12.25L57.75 3.50L61.25 3.50ZM63 3.50L68.25 3.50L68.25 5.25L63 5.25L63 3.50ZM78.75 12.25L75.25 12.25L75.25 10.50L73.50 10.50L73.50 8.75L71.75 8.75L71.75 3.50L75.25 3.50L75.25 8.75L78.75 8.75L78.75 3.50L82.25 3.50L82.25 8.75L80.50 8.75L80.50 10.50L78.75 10.50L78.75 12.25ZM96.25 12.25L85.75 12.25L85.75 10.50L84 10.50L84 8.75L85.75 8.75L85.75 7L92.75 7L92.75 5.25L85.75 5.25L85.75 3.50L94.50 3.50L94.50 5.25L96.25 5.25L96.25 12.25ZM87.50 8.75L87.50 10.50L92.75 10.50L92.75 8.75L87.50 8.75ZM110.25 12.25L99.75 12.25L99.75 0L103.25 0L103.25 10.50L110.25 10.50L110.25 12.25ZM122.50 12.25L113.75 12.25L113.75 10.50L112 10.50L112 5.25L113.75 5.25L113.75 3.50L122.50 3.50L122.50 5.25L124.25 5.25L124.25 10.50L122.50 10.50L122.50 12.25ZM115.50 5.25L115.50 10.50L120.75 10.50L120.75 5.25L115.50 5.25ZM129.50 12.25L126 12.25L126 3.50L136.50 3.50L136.50 5.25L138.25 5.25L138.25 12.25L134.75 12.25L134.75 5.25L129.50 5.25L129.50 12.25ZM150.50 14L141.75 14L141.75 12.25L148.75 12.25L148.75 10.50L141.75 10.50L141.75 8.75L140 8.75L140 5.25L141.75 5.25L141.75 3.50L152.25 3.50L152.25 12.25L150.50 12.25L150.50 14ZM143.50 5.25L143.50 8.75L148.75 8.75L148.75 5.25L143.50 5.25Z"></path></g><!----><g data-v-423bf9ae="" id="6ac730fc-efb9-4dcf-9998-f9f614275016" transform="matrix(2.8125,0,0,2.8125,282,0)" stroke="none" fill="#746657"><circle cx="16" cy="16.021" r="8.066"></circle><path d="M32 0H0v32h32V0zM16 26.086c-5.551 0-10.066-4.516-10.066-10.065 0-5.55 4.516-10.066 10.066-10.066 5.55 0 10.065 4.516 10.065 10.066.001 5.55-4.515 10.065-10.065 10.065z"></path></g><!----></svg>